<?xml version="1.0" encoding="UTF-8"?><svg id="Calque_2" xmlns="http://www.w3.org/2000/svg" width="1910.7" height="198.43" viewBox="0 0 1910.7 198.43"><g id="Calque_3"><path d="M0,4.09s208-11.79,408,4.68c83,6.83,546.11,45.1,633,37.47,138.87,8.6,655.34-32.07,869.7-44.1v196.3H0V4.09Z" style="fill:#4a90e2; opacity:.25; stroke-width:0px;"/><path d="M0,53.98c113.73,1.8,328.57,29.18,532,32.64,113,1.49,330,4.49,420-2.5,280.97-16.42,601.02-51.22,958.7-29v143.31H0V53.98Z" style="fill:#4a90e2; stroke-width:0px;"/><path d="M268,89.59s289,6.91,470-14.42c0,0,313-36.25,323-32.7,19-1.42,204-11.37,277-8.53,73,2.84,137-2.13,227,6.4,17,0,176,8.53,186,11.37s159.7,28.55,159.7,28.55l-138.7,58.17-1504-1.42v-47.42Z" style="fill:#4a90e2; opacity:.54; stroke-width:0px;"/></g></svg>